PathFileType	4	(X/Y/Z)	Walk1.trc
DataRate	CameraRate	NumFrames	NumMarkers	Units	OrigDataRate	OrigDataStartFrame	OrigNumFrames
200.000000	200.000000	7	59	mm	200.000000	364	485
Frame#	Times		LFHD		RFHD		LBHD		RBHD		C7		T10		CLAV		STRN		RBack		LASI		RASI		LPSI		RPSI		RACR1		RUA1		RElbow		RElbowM		RFA1		RWRR		RWRU		RCAR		LACR1		LUA1		LElbow		LElbowM		LFA1		LWRR		LCAR		RTH1		RTH3		RTH2		RTH4		RLFC		RTB1		RTB3		RTB2		RTB4		RLMAL		RMT1		RMT5		LTH1		LTH3		LTH2		LTH4		LLFC		LTB1		LTB3		LTB2		LTB4		LLMAL		LMMAL		LMT1		LMT5		LToe		RMMAL		LWRU		RToe		LCAL		RCAL
			X1	Y1	Z1	X2	Y2	Z2	X3	Y3	Z3	X4	Y4	Z4	X5	Y5	Z5	X6	Y6	Z6	X7	Y7	Z7	X8	Y8	Z8	X9	Y9	Z9	X10	Y10	Z10	X11	Y11	Z11	X12	Y12	Z12	X13	Y13	Z13	X14	Y14	Z14	X15	Y15	Z15	X16	Y16	Z16	X17	Y17	Z17	X18	Y18	Z18	X19	Y19	Z19	X20	Y20	Z20	X21	Y21	Z21	X22	Y22	Z22	X23	Y23	Z23	X24	Y24	Z24	X25	Y25	Z25	X26	Y26	Z26	X27	Y27	Z27	X28	Y28	Z28	X29	Y29	Z29	X30	Y30	Z30	X31	Y31	Z31	X32	Y32	Z32	X33	Y33	Z33	X34	Y34	Z34	X35	Y35	Z35	X36	Y36	Z36	X37	Y37	Z37	X38	Y38	Z38	X39	Y39	Z39	X40	Y40	Z40	X41	Y41	Z41	X42	Y42	Z42	X43	Y43	Z43	X44	Y44	Z44	X45	Y45	Z45	X46	Y46	Z46	X47	Y47	Z47	X48	Y48	Z48	X49	Y49	Z49	X50	Y50	Z50	X51	Y51	Z51	X52	Y52	Z52	X53	Y53	Z53	X54	Y54	Z54	X55	Y55	Z55	X56	Y56	Z56	X57	Y57	Z57	X58	Y58	Z58	X59	Y59	Z59

364	1.82	660.53	1579.9	-76.522	678.11	1580.4	16.439	508.44	1525.1	-76.792	530.13	1533.6	63.281	484.09	1404.3	-2.5671	409.2	1137.8	-0.2215	622.29	1324	-18.53	680.69	1220.2	-15.681	439.36	1309.8	107.59	668.99	945.98	-143.61	667.33	964.93	152.15	420.55	944.41	-44.013	420.33	955.07	44.231	566.67	1365.1	138.78	577.25	1192.4	244.96	545.41	1069.8	285.57	537.65	1029.2	195.13	601.82	933.25	309.33	715.24	871.64	272.2	664.13	841.04	313.96	740.82	830.01	326.46	546.41	1359.5	-170.27	504.77	1177.9	-257.11	447.61	1059.2	-274.73	420.43	1039.1	-198.28	425.31	926.01	-292.88	480.96	803.78	-261.36	474.56	755.12	-302.91	567.17	734.64	220.35	513.63	578.06	171.56	592.07	647.11	172.28	538.02	655.81	193.79	483.06	494.63	149.65	480.72	334.05	73.207	426.86	169.61	68.874	432.95	257.35	126.94	454.26	250.79	67.92	361.61	68.448	91.242	472.93	33.355	33.606	441.82	26.64	110.04	595.89	734.85	-212	673.06	588.14	-169.02	685.61	692.66	-184.01	634.29	663.33	-185.47	721.76	482.13	-140.5	819.22	364.49	-77.316	849.51	195.4	-88.091	807.36	276.3	-136.06	833.67	279.01	-81.299	842.1	73.256	-113.59	859.92	85.083	-33.376	964.57	81.903	-61.712	937.29	57.634	-129.54	1019.5	102.92	-97.97	375.55	72.908	9.0298	423.33	808.68	-303.08	542.51	25.988	66.591	792.43	27.395	-72.162	294.76	41.874	57.198
365	1.825	666.2	1579	-77.269	683.5	1579.5	15.822	514.07	1524.1	-77.381	535.59	1532.8	62.484	489.46	1403.4	-3.5415	415.03	1136.7	-0.90591	627.8	1323	-19.068	686.33	1219.2	-16.254	445.1	1308.8	107.03	675.05	945.06	-144.07	672.93	964.17	151.9	426.47	943.41	-44.619	426.23	953.94	43.753	572.24	1364	138.16	583.32	1191.5	244.17	551.82	1069	285.15	543.74	1027.9	194.4	608.23	932.75	309.14	722.07	871.19	271.38	670.89	840.86	313.72	747.82	829.77	325.66	552.1	1358.4	-170.87	509.38	1177	-257.72	451.99	1058.5	-275.08	425.52	1038.3	-198.11	429.37	925.19	-292.91	484.84	802.92	-262.17	477.93	754.29	-303.82	572.02	733.83	220.4	517.43	577.72	171.15	596.33	646.19	171.92	542.45	655.29	193.39	486.42	494.53	149.21	482.94	333.82	73.134	427.94	169.87	68.641	434.61	257.64	126.48	455.85	250.9	67.592	361.91	68.95	90.83	473.02	33.197	33.308	441.65	26.658	109.81	602.39	734.31	-212.97	678.32	586.69	-170.65	691.56	691.36	-184.4	640.07	662.29	-186.97	727.1	480.84	-141.3	826.95	365.21	-76.987	860.75	196.81	-87.772	817.49	276.87	-135.98	843.13	280.23	-80.824	856.88	73.96	-112.94	873.01	87.272	-32.849	978.07	85.607	-60.025	952.15	60.288	-128.33	1033.1	107.59	-95.562	376.12	73.797	8.7752	426.79	807.97	-303.13	542.52	25.798	66.64	807.08	27.646	-72.385	294.86	42.616	56.796
366	1.83	671.85	1578.1	-77.803	689.26	1578.6	15.141	519.76	1523.4	-77.934	541.18	1531.8	61.814	495.08	1402.2	-4.2063	420.71	1135.6	-1.636	633.59	1322.1	-19.679	691.99	1218.2	-16.844	450.4	1307.6	106.5	681.12	944.09	-144.32	678.69	963.5	151.64	432.15	942.05	-45.261	432.13	952.93	42.885	577.77	1363	137.42	589.23	1190.6	243.43	558.16	1068.1	284.43	549.95	1026.9	193.79	614.59	932.04	308.26	728.54	870.72	270.59	677.75	840.47	313.13	754.53	829.44	324.79	557.46	1357.4	-171.62	514.04	1176	-258.2	456.47	1057.6	-275.15	430.48	1037.5	-198.24	433.4	924.4	-292.9	488.91	801.95	-262.86	481.59	753.51	-304.57	577.11	733.17	219.98	521.48	577.45	170.83	600.63	645.31	171.38	547.07	654.59	193.11	489.69	494.43	148.94	485	333.66	72.902	428.98	169.99	68.433	436.12	257.81	126.4	457.36	250.77	67.594	362.29	69.636	90.558	473.1	33.215	33.148	441.6	26.803	109.64	608.77	733.66	-213.88	683.84	585.17	-172.25	697.69	690.08	-184.8	646.18	661.27	-188.48	732.79	479.67	-142.09	834.36	365.92	-76.564	871.39	198.25	-87.422	827.13	277.65	-135.93	852.14	281.32	-80.393	870.55	75.027	-112.49	885.33	89.44	-32.805	990.42	89.11	-58.987	966.06	62.83	-127.27	1045.8	112.1	-93.624	376.71	74.414	8.5347	430.47	807.2	-303.32	542.54	25.635	66.712	821.06	28.124	-72.745	295.04	43.887	56.245
367	1.835	677.53	1577.1	-78.426	694.88	1577.7	14.504	525.3	1522.5	-78.931	546.81	1530.9	61.134	500.68	1401.3	-4.7334	426.47	1134.7	-2.4849	639.07	1321.3	-20.372	697.15	1217	-17.279	455.94	1306.6	105.62	687.36	943.04	-144.67	684.06	962.73	151.44	438.06	940.91	-46.183	438.07	951.98	41.775	583.05	1362.3	136.74	595.35	1189.8	242.49	564.37	1067.2	283.6	556.19	1026.1	193.15	621.04	931.11	307.32	734.96	870.16	269.76	684.77	839.66	312.03	761.38	829.06	323.89	563.14	1356.4	-172.39	518.78	1175.2	-258.71	460.98	1056.7	-275.37	436.03	1036.4	-198.18	437.46	923.61	-293.21	493.4	800.95	-263.57	485.28	752.53	-305.3	582.65	732.49	219.28	525.7	577.02	170.4	605.13	644.54	170.75	551.66	653.97	192.77	493.22	494.27	148.57	487.39	333.34	72.715	430.31	170.22	68.488	437.81	258.03	126.26	459.09	250.71	67.423	362.63	70.517	90.293	473.22	33.425	33.234	441.6	26.971	109.53	615.26	733	-214.7	689.45	583.74	-173.59	703.94	688.98	-185.28	652.1	660.17	-189.94	738.99	478.77	-142.5	841.59	366.53	-76.071	881.66	199.52	-87.156	836.48	278.44	-135.81	860.83	282.22	-79.997	883.05	76.114	-112.3	896.95	90.816	-32.928	1002	92.316	-57.837	979.46	64.835	-126.25	1057.8	115.79	-91.748	377.37	75.262	8.4141	434.2	806.61	-303.5	542.65	25.482	66.564	834.05	28.567	-73.489	295.33	45.222	56.072
368	1.84	683.15	1576.2	-79.193	700.4	1576.9	13.82	530.82	1521.4	-79.768	552.37	1530.1	60.368	506.23	1400.5	-5.672	432.48	1133.8	-3.2696	644.8	1320.3	-20.968	703.28	1216.2	-17.792	461.4	1305.6	104.82	693.59	942.09	-144.84	689.67	962.02	151.27	444.27	939.69	-46.857	443.82	950.83	41.069	588.45	1361.4	136.04	600.95	1188.8	241.78	570.17	1066.3	282.95	562.48	1024.9	192.36	627.51	930.41	306.79	741.46	869.5	268.89	691.64	838.66	311.11	768.24	828.59	322.98	568.8	1355.4	-173.11	523.69	1174.3	-259.32	465.33	1055.9	-275.81	441.59	1035.3	-198.11	441.55	922.88	-293.22	497.52	799.87	-264.33	489.14	751.65	-306.11	587.74	731.77	218.7	529.91	576.59	169.87	609.8	643.79	170.13	556.24	653.6	192.31	496.57	494.07	148.12	490	333.07	72.599	431.35	170.37	68.415	439.35	258.44	126.02	461.01	250.65	67.251	362.97	71.269	90.229	473.35	33.508	33.239	441.6	27.074	109.47	621.55	732.3	-215.69	695.22	582.48	-174.71	710.15	687.88	-185.7	658.31	659.1	-191.31	745.44	477.96	-142.7	848.67	366.93	-75.471	891.33	200.59	-86.932	845.43	279.04	-135.78	869.19	282.95	-79.603	894.83	77.382	-112.71	907.7	91.684	-33.072	1013.2	94.978	-56.76	992.46	66.609	-125.09	1069.1	119.52	-90.033	377.72	75.846	8.367	438.04	805.55	-303.65	542.72	25.341	66.667	846.2	28.844	-74.4	295.56	46.176	56.307
369	1.845	688.68	1575.3	-79.983	705.92	1576.1	13.063	536.6	1520.8	-80.52	557.96	1529.4	59.599	511.69	1399.6	-6.5617	438.28	1132.7	-3.8874	650.47	1319.5	-21.56	709.12	1215.3	-18.363	466.9	1304.5	104.26	699.82	941.12	-145	695.17	961.37	151.09	450.36	938.64	-47.591	449.83	949.83	40.177	593.87	1360.5	135.46	606.92	1187.9	241.04	576.42	1065.4	282.11	568.52	1023.4	191.68	633.99	929.77	305.92	747.61	868.88	267.92	698	837.98	310.63	774.99	828.08	322.09	574.37	1354.3	-173.82	528.64	1173.4	-259.94	470.1	1054.8	-275.73	446.77	1034.4	-198.3	445.86	922.04	-293.42	501.78	798.93	-265.05	492.94	750.75	-306.73	592.72	730.89	218.28	534.09	576.27	169.38	614.45	643.01	169.59	560.94	653.11	191.74	500.24	493.93	147.74	492.59	332.81	72.352	432.5	170.49	68.295	441.32	258.83	125.87	462.76	250.7	67.058	363.31	72.158	90.104	473.39	33.475	33.052	441.62	27.165	109.39	628.01	731.49	-216.7	701.24	581.35	-175.55	716.32	686.8	-186.06	664.49	657.9	-192.35	751.99	477.19	-142.78	855.07	367.17	-74.797	900.57	201.48	-86.802	854.26	279.67	-135.75	877.13	283.46	-79.237	905.8	78.808	-113.44	918.08	92.419	-33.267	1023.7	97.302	-56.156	1003.8	69.13	-124.64	1079.3	122.85	-88.387	377.96	76.274	8.2992	442.04	804.73	-303.64	542.75	25.179	66.991	857.77	28.943	-75.416	295.7	47.411	56.413
370	1.85	694.39	1574.4	-80.65	711.45	1575.1	12.276	542.04	1519.8	-81.281	563.31	1528.5	58.821	517.28	1398.6	-7.3133	444.31	1131.5	-4.7323	656.27	1318.7	-22.38	714.75	1214.5	-18.795	472.35	1303.6	103.41	706.15	940.09	-145.2	700.75	960.81	150.88	456.3	937.79	-48.617	455.85	948.7	39.104	599.19	1359.5	134.79	612.77	1187	240.29	582.49	1064.3	281.26	574.25	1022.5	191.01	640.43	928.96	305.1	754.07	868.29	266.98	704.32	837.63	309.98	781.4	827.55	321.27	580.12	1353.4	-174.66	533.67	1172.5	-260.59	475.01	1053.7	-275.8	452.14	1033.4	-198.37	450.45	921.23	-293.55	506.24	797.95	-265.72	496.97	749.67	-307.32	597.82	730.05	217.91	538.46	575.91	168.91	619.15	642.08	169.15	565.33	652.55	191.02	504.28	493.71	147.41	495.18	332.58	72.125	433.7	170.68	68.245	443.15	258.97	125.63	464.82	250.67	66.993	363.59	73.027	90.204	473.45	33.516	33.009	441.68	27.226	109.35	634.47	730.56	-217.71	707.46	580.26	-175.99	722.73	685.87	-186.48	670.8	656.75	-193.3	758.49	476.21	-142.9	861.51	367.15	-74.182	909.23	202.11	-86.72	862.68	280.06	-135.78	884.55	283.72	-78.805	915.82	79.853	-114.35	927.41	93.251	-33.165	1033.3	99.319	-55.395	1013.8	71.852	-124.76	1089.1	125.4	-87.023	378.27	76.838	8.2777	446.48	803.83	-303.75	542.78	25.107	67.207	868.35	28.936	-76.576	295.78	49.028	56.251
